<mxfile host="app.diagrams.net" modified="2023-06-06T17:52:11.351Z" agent="Mozilla/5.0 (Windows NT 10.0; Win64; x64) AppleWebKit/537.36 (KHTML, like Gecko) Chrome/114.0.0.0 Safari/537.36" etag="NKa7ByCbmiSVnqQg773W" version="21.3.7" type="device">
  <diagram name="Page-1" id="g5cc2RJTa5ZxCEeDpZsY">
    <mxGraphModel dx="1500" dy="747" grid="1" gridSize="10" guides="1" tooltips="1" connect="1" arrows="1" fold="1" page="1" pageScale="1" pageWidth="1654" pageHeight="1169" math="0" shadow="0">
      <root>
        <mxCell id="0" />
        <mxCell id="1" parent="0" />
        <mxCell id="HMeaCuF2fgtM7ROqkcLT-1" value="conference papers" style="rounded=0;whiteSpace=wrap;html=1;" vertex="1" parent="1">
          <mxGeometry x="135" y="515" width="120" height="60" as="geometry" />
        </mxCell>
        <mxCell id="HMeaCuF2fgtM7ROqkcLT-2" value="assisting in&amp;nbsp;" style="rounded=0;whiteSpace=wrap;html=1;" vertex="1" parent="1">
          <mxGeometry x="735" y="515" width="120" height="60" as="geometry" />
        </mxCell>
        <mxCell id="HMeaCuF2fgtM7ROqkcLT-3" value="&lt;p style=&quot;border-color: var(--border-color);&quot; class=&quot;MsoNormal&quot;&gt;internal papers&lt;span style=&quot;background-color: initial;&quot;&gt;&amp;nbsp;&lt;/span&gt;&lt;/p&gt;" style="rounded=0;whiteSpace=wrap;html=1;align=center;" vertex="1" parent="1">
          <mxGeometry x="355" y="515" width="110" height="60" as="geometry" />
        </mxCell>
        <mxCell id="HMeaCuF2fgtM7ROqkcLT-4" value="&amp;nbsp;workshops" style="rounded=0;whiteSpace=wrap;html=1;" vertex="1" parent="1">
          <mxGeometry x="535" y="515" width="120" height="60" as="geometry" />
        </mxCell>
        <mxCell id="HMeaCuF2fgtM7ROqkcLT-7" value="Institute types" style="rounded=0;whiteSpace=wrap;html=1;" vertex="1" parent="1">
          <mxGeometry x="1200" y="40" width="160" height="80" as="geometry" />
        </mxCell>
        <mxCell id="HMeaCuF2fgtM7ROqkcLT-11" value="related &amp;nbsp;Information&lt;br/&gt;of member&amp;nbsp;" style="rounded=0;whiteSpace=wrap;html=1;" vertex="1" parent="1">
          <mxGeometry x="285" y="1800" width="120" height="60" as="geometry" />
        </mxCell>
        <mxCell id="HMeaCuF2fgtM7ROqkcLT-14" value="is&amp;nbsp;contain" style="rhombus;whiteSpace=wrap;html=1;" vertex="1" parent="1">
          <mxGeometry x="390" y="395" width="200" height="80" as="geometry" />
        </mxCell>
        <mxCell id="HMeaCuF2fgtM7ROqkcLT-21" value="domestic&amp;nbsp;" style="ellipse;whiteSpace=wrap;html=1;" vertex="1" parent="1">
          <mxGeometry x="715" y="615" width="70" height="60" as="geometry" />
        </mxCell>
        <mxCell id="HMeaCuF2fgtM7ROqkcLT-22" value="international" style="ellipse;whiteSpace=wrap;html=1;" vertex="1" parent="1">
          <mxGeometry x="815" y="615" width="70" height="60" as="geometry" />
        </mxCell>
        <mxCell id="HMeaCuF2fgtM7ROqkcLT-27" value="domestic&amp;nbsp;" style="ellipse;whiteSpace=wrap;html=1;" vertex="1" parent="1">
          <mxGeometry x="510" y="615" width="70" height="60" as="geometry" />
        </mxCell>
        <mxCell id="HMeaCuF2fgtM7ROqkcLT-28" value="international" style="ellipse;whiteSpace=wrap;html=1;" vertex="1" parent="1">
          <mxGeometry x="610" y="615" width="70" height="60" as="geometry" />
        </mxCell>
        <mxCell id="HMeaCuF2fgtM7ROqkcLT-29" value="domestic&amp;nbsp;" style="ellipse;whiteSpace=wrap;html=1;" vertex="1" parent="1">
          <mxGeometry x="310" y="615" width="70" height="60" as="geometry" />
        </mxCell>
        <mxCell id="HMeaCuF2fgtM7ROqkcLT-30" value="international" style="ellipse;whiteSpace=wrap;html=1;" vertex="1" parent="1">
          <mxGeometry x="410" y="615" width="70" height="60" as="geometry" />
        </mxCell>
        <mxCell id="HMeaCuF2fgtM7ROqkcLT-31" value="domestic&amp;nbsp;" style="ellipse;whiteSpace=wrap;html=1;" vertex="1" parent="1">
          <mxGeometry x="110" y="615" width="70" height="60" as="geometry" />
        </mxCell>
        <mxCell id="HMeaCuF2fgtM7ROqkcLT-32" value="international" style="ellipse;whiteSpace=wrap;html=1;" vertex="1" parent="1">
          <mxGeometry x="210" y="615" width="70" height="60" as="geometry" />
        </mxCell>
        <mxCell id="HMeaCuF2fgtM7ROqkcLT-33" value="" style="endArrow=none;html=1;rounded=0;entryX=0.5;entryY=1;entryDx=0;entryDy=0;exitX=0.5;exitY=0;exitDx=0;exitDy=0;" edge="1" parent="1" source="HMeaCuF2fgtM7ROqkcLT-3" target="HMeaCuF2fgtM7ROqkcLT-14">
          <mxGeometry width="50" height="50" relative="1" as="geometry">
            <mxPoint x="405" y="755" as="sourcePoint" />
            <mxPoint x="455" y="705" as="targetPoint" />
          </mxGeometry>
        </mxCell>
        <mxCell id="HMeaCuF2fgtM7ROqkcLT-34" value="" style="endArrow=none;html=1;rounded=0;entryX=0.5;entryY=1;entryDx=0;entryDy=0;exitX=0.5;exitY=0;exitDx=0;exitDy=0;" edge="1" parent="1" source="HMeaCuF2fgtM7ROqkcLT-4" target="HMeaCuF2fgtM7ROqkcLT-14">
          <mxGeometry width="50" height="50" relative="1" as="geometry">
            <mxPoint x="405" y="525" as="sourcePoint" />
            <mxPoint x="500" y="485" as="targetPoint" />
          </mxGeometry>
        </mxCell>
        <mxCell id="HMeaCuF2fgtM7ROqkcLT-35" value="" style="endArrow=none;html=1;rounded=0;entryX=0.5;entryY=1;entryDx=0;entryDy=0;exitX=0.5;exitY=0;exitDx=0;exitDy=0;" edge="1" parent="1" source="HMeaCuF2fgtM7ROqkcLT-1" target="HMeaCuF2fgtM7ROqkcLT-14">
          <mxGeometry width="50" height="50" relative="1" as="geometry">
            <mxPoint x="415" y="535" as="sourcePoint" />
            <mxPoint x="510" y="495" as="targetPoint" />
            <Array as="points">
              <mxPoint x="195" y="475" />
            </Array>
          </mxGeometry>
        </mxCell>
        <mxCell id="HMeaCuF2fgtM7ROqkcLT-36" value="" style="endArrow=none;html=1;rounded=0;entryX=0.5;entryY=0;entryDx=0;entryDy=0;" edge="1" parent="1" target="HMeaCuF2fgtM7ROqkcLT-2">
          <mxGeometry width="50" height="50" relative="1" as="geometry">
            <mxPoint x="495" y="475" as="sourcePoint" />
            <mxPoint x="520" y="505" as="targetPoint" />
            <Array as="points">
              <mxPoint x="795" y="475" />
            </Array>
          </mxGeometry>
        </mxCell>
        <mxCell id="HMeaCuF2fgtM7ROqkcLT-37" value="" style="endArrow=none;html=1;rounded=0;entryX=0.5;entryY=1;entryDx=0;entryDy=0;exitX=0.5;exitY=0;exitDx=0;exitDy=0;" edge="1" parent="1" source="HMeaCuF2fgtM7ROqkcLT-21" target="HMeaCuF2fgtM7ROqkcLT-2">
          <mxGeometry width="50" height="50" relative="1" as="geometry">
            <mxPoint x="702.5" y="615" as="sourcePoint" />
            <mxPoint x="797.5" y="575" as="targetPoint" />
          </mxGeometry>
        </mxCell>
        <mxCell id="HMeaCuF2fgtM7ROqkcLT-42" value="" style="endArrow=none;html=1;rounded=0;exitX=0.5;exitY=0;exitDx=0;exitDy=0;" edge="1" parent="1" source="HMeaCuF2fgtM7ROqkcLT-22">
          <mxGeometry width="50" height="50" relative="1" as="geometry">
            <mxPoint x="790" y="655" as="sourcePoint" />
            <mxPoint x="795" y="575" as="targetPoint" />
          </mxGeometry>
        </mxCell>
        <mxCell id="HMeaCuF2fgtM7ROqkcLT-43" value="" style="endArrow=none;html=1;rounded=0;entryX=0.5;entryY=1;entryDx=0;entryDy=0;exitX=0.5;exitY=0;exitDx=0;exitDy=0;" edge="1" parent="1">
          <mxGeometry width="50" height="50" relative="1" as="geometry">
            <mxPoint x="545" y="615" as="sourcePoint" />
            <mxPoint x="590" y="575" as="targetPoint" />
          </mxGeometry>
        </mxCell>
        <mxCell id="HMeaCuF2fgtM7ROqkcLT-44" value="" style="endArrow=none;html=1;rounded=0;exitX=0.5;exitY=0;exitDx=0;exitDy=0;" edge="1" parent="1">
          <mxGeometry width="50" height="50" relative="1" as="geometry">
            <mxPoint x="645" y="615" as="sourcePoint" />
            <mxPoint x="590" y="575" as="targetPoint" />
          </mxGeometry>
        </mxCell>
        <mxCell id="HMeaCuF2fgtM7ROqkcLT-45" value="" style="endArrow=none;html=1;rounded=0;entryX=0.5;entryY=1;entryDx=0;entryDy=0;exitX=0.5;exitY=0;exitDx=0;exitDy=0;" edge="1" parent="1">
          <mxGeometry width="50" height="50" relative="1" as="geometry">
            <mxPoint x="345" y="615" as="sourcePoint" />
            <mxPoint x="390" y="575" as="targetPoint" />
          </mxGeometry>
        </mxCell>
        <mxCell id="HMeaCuF2fgtM7ROqkcLT-46" value="" style="endArrow=none;html=1;rounded=0;exitX=0.5;exitY=0;exitDx=0;exitDy=0;" edge="1" parent="1">
          <mxGeometry width="50" height="50" relative="1" as="geometry">
            <mxPoint x="445" y="615" as="sourcePoint" />
            <mxPoint x="390" y="575" as="targetPoint" />
          </mxGeometry>
        </mxCell>
        <mxCell id="HMeaCuF2fgtM7ROqkcLT-47" value="" style="endArrow=none;html=1;rounded=0;entryX=0.5;entryY=1;entryDx=0;entryDy=0;exitX=0.5;exitY=0;exitDx=0;exitDy=0;" edge="1" parent="1">
          <mxGeometry width="50" height="50" relative="1" as="geometry">
            <mxPoint x="145" y="615" as="sourcePoint" />
            <mxPoint x="190" y="575" as="targetPoint" />
          </mxGeometry>
        </mxCell>
        <mxCell id="HMeaCuF2fgtM7ROqkcLT-48" value="" style="endArrow=none;html=1;rounded=0;exitX=0.5;exitY=0;exitDx=0;exitDy=0;" edge="1" parent="1">
          <mxGeometry width="50" height="50" relative="1" as="geometry">
            <mxPoint x="245" y="615" as="sourcePoint" />
            <mxPoint x="190" y="575" as="targetPoint" />
          </mxGeometry>
        </mxCell>
        <mxCell id="HMeaCuF2fgtM7ROqkcLT-51" value="&lt;p style=&quot;border-color: var(--border-color);&quot; class=&quot;MsoNormal&quot;&gt;Practical&amp;nbsp;&lt;br&gt;&lt;/p&gt;" style="rounded=0;whiteSpace=wrap;html=1;align=center;" vertex="1" parent="1">
          <mxGeometry x="1075" y="265" width="110" height="60" as="geometry" />
        </mxCell>
        <mxCell id="HMeaCuF2fgtM7ROqkcLT-52" value="Academic&amp;nbsp;" style="rounded=0;whiteSpace=wrap;html=1;" vertex="1" parent="1">
          <mxGeometry x="1355" y="265" width="120" height="60" as="geometry" />
        </mxCell>
        <mxCell id="HMeaCuF2fgtM7ROqkcLT-53" value="is" style="rhombus;whiteSpace=wrap;html=1;" vertex="1" parent="1">
          <mxGeometry x="1200" y="155" width="169" height="80" as="geometry" />
        </mxCell>
        <mxCell id="HMeaCuF2fgtM7ROqkcLT-62" value="" style="endArrow=none;html=1;rounded=0;entryX=0.5;entryY=1;entryDx=0;entryDy=0;exitX=0.5;exitY=0;exitDx=0;exitDy=0;" edge="1" parent="1" source="HMeaCuF2fgtM7ROqkcLT-51" target="HMeaCuF2fgtM7ROqkcLT-53">
          <mxGeometry width="50" height="50" relative="1" as="geometry">
            <mxPoint x="1184" y="515" as="sourcePoint" />
            <mxPoint x="1234" y="465" as="targetPoint" />
          </mxGeometry>
        </mxCell>
        <mxCell id="HMeaCuF2fgtM7ROqkcLT-63" value="" style="endArrow=none;html=1;rounded=0;entryX=0.5;entryY=1;entryDx=0;entryDy=0;exitX=0.5;exitY=0;exitDx=0;exitDy=0;" edge="1" parent="1" source="HMeaCuF2fgtM7ROqkcLT-52" target="HMeaCuF2fgtM7ROqkcLT-53">
          <mxGeometry width="50" height="50" relative="1" as="geometry">
            <mxPoint x="1184" y="285" as="sourcePoint" />
            <mxPoint x="1279" y="245" as="targetPoint" />
          </mxGeometry>
        </mxCell>
        <mxCell id="HMeaCuF2fgtM7ROqkcLT-68" value="" style="endArrow=none;html=1;rounded=0;exitX=0.5;exitY=0;exitDx=0;exitDy=0;" edge="1" parent="1" source="HMeaCuF2fgtM7ROqkcLT-77">
          <mxGeometry width="50" height="50" relative="1" as="geometry">
            <mxPoint x="1365" y="365" as="sourcePoint" />
            <mxPoint x="1410" y="325" as="targetPoint" />
          </mxGeometry>
        </mxCell>
        <mxCell id="HMeaCuF2fgtM7ROqkcLT-69" value="" style="endArrow=none;html=1;rounded=0;exitX=0.474;exitY=0.029;exitDx=0;exitDy=0;exitPerimeter=0;" edge="1" parent="1" source="HMeaCuF2fgtM7ROqkcLT-76">
          <mxGeometry width="50" height="50" relative="1" as="geometry">
            <mxPoint x="1465" y="365" as="sourcePoint" />
            <mxPoint x="1410" y="325" as="targetPoint" />
          </mxGeometry>
        </mxCell>
        <mxCell id="HMeaCuF2fgtM7ROqkcLT-70" value="" style="endArrow=none;html=1;rounded=0;entryX=0.5;entryY=1;entryDx=0;entryDy=0;exitX=0.5;exitY=0;exitDx=0;exitDy=0;" edge="1" parent="1" source="HMeaCuF2fgtM7ROqkcLT-79">
          <mxGeometry width="50" height="50" relative="1" as="geometry">
            <mxPoint x="1065" y="365" as="sourcePoint" />
            <mxPoint x="1110" y="325" as="targetPoint" />
          </mxGeometry>
        </mxCell>
        <mxCell id="HMeaCuF2fgtM7ROqkcLT-71" value="" style="endArrow=none;html=1;rounded=0;exitX=0.424;exitY=-0.012;exitDx=0;exitDy=0;exitPerimeter=0;" edge="1" parent="1" source="HMeaCuF2fgtM7ROqkcLT-78">
          <mxGeometry width="50" height="50" relative="1" as="geometry">
            <mxPoint x="1165" y="365" as="sourcePoint" />
            <mxPoint x="1110" y="325" as="targetPoint" />
          </mxGeometry>
        </mxCell>
        <mxCell id="HMeaCuF2fgtM7ROqkcLT-76" value="research centers&amp;nbsp;" style="rounded=0;whiteSpace=wrap;html=1;" vertex="1" parent="1">
          <mxGeometry x="1440" y="365" width="90" height="60" as="geometry" />
        </mxCell>
        <mxCell id="HMeaCuF2fgtM7ROqkcLT-77" value="Universities" style="rounded=0;whiteSpace=wrap;html=1;" vertex="1" parent="1">
          <mxGeometry x="1320" y="365" width="90" height="60" as="geometry" />
        </mxCell>
        <mxCell id="HMeaCuF2fgtM7ROqkcLT-78" value="&lt;p class=&quot;MsoNormal&quot;&gt;N GOV org&lt;/p&gt;" style="rounded=0;whiteSpace=wrap;html=1;" vertex="1" parent="1">
          <mxGeometry x="1130" y="365" width="90" height="60" as="geometry" />
        </mxCell>
        <mxCell id="HMeaCuF2fgtM7ROqkcLT-79" value="GOV org" style="rounded=0;whiteSpace=wrap;html=1;" vertex="1" parent="1">
          <mxGeometry x="1010" y="365" width="90" height="60" as="geometry" />
        </mxCell>
        <mxCell id="HMeaCuF2fgtM7ROqkcLT-80" value="Research activity" style="rounded=0;whiteSpace=wrap;html=1;" vertex="1" parent="1">
          <mxGeometry x="410" y="290" width="160" height="80" as="geometry" />
        </mxCell>
        <mxCell id="HMeaCuF2fgtM7ROqkcLT-82" value="" style="endArrow=none;html=1;rounded=0;entryX=0.5;entryY=1;entryDx=0;entryDy=0;exitX=0.5;exitY=0;exitDx=0;exitDy=0;" edge="1" parent="1" source="HMeaCuF2fgtM7ROqkcLT-14" target="HMeaCuF2fgtM7ROqkcLT-80">
          <mxGeometry width="50" height="50" relative="1" as="geometry">
            <mxPoint x="710" y="480" as="sourcePoint" />
            <mxPoint x="760" y="430" as="targetPoint" />
          </mxGeometry>
        </mxCell>
        <mxCell id="HMeaCuF2fgtM7ROqkcLT-83" value="" style="endArrow=none;html=1;rounded=0;entryX=0.5;entryY=1;entryDx=0;entryDy=0;exitX=0.5;exitY=0;exitDx=0;exitDy=0;" edge="1" parent="1" source="HMeaCuF2fgtM7ROqkcLT-53" target="HMeaCuF2fgtM7ROqkcLT-7">
          <mxGeometry width="50" height="50" relative="1" as="geometry">
            <mxPoint x="510" y="155" as="sourcePoint" />
            <mxPoint x="510" y="130" as="targetPoint" />
          </mxGeometry>
        </mxCell>
        <mxCell id="HMeaCuF2fgtM7ROqkcLT-85" value="Information related&lt;br/&gt;to the specialized field" style="ellipse;whiteSpace=wrap;html=1;" vertex="1" parent="1">
          <mxGeometry x="160" y="200" width="120" height="80" as="geometry" />
        </mxCell>
        <mxCell id="HMeaCuF2fgtM7ROqkcLT-88" value="" style="endArrow=none;html=1;rounded=0;entryX=0.5;entryY=1;entryDx=0;entryDy=0;exitX=0.5;exitY=0;exitDx=0;exitDy=0;" edge="1" parent="1" source="HMeaCuF2fgtM7ROqkcLT-80" target="HMeaCuF2fgtM7ROqkcLT-85">
          <mxGeometry width="50" height="50" relative="1" as="geometry">
            <mxPoint x="460" y="410" as="sourcePoint" />
            <mxPoint x="510" y="360" as="targetPoint" />
          </mxGeometry>
        </mxCell>
        <mxCell id="HMeaCuF2fgtM7ROqkcLT-89" value="sponsors List&lt;span dir=&quot;RTL&quot;&gt;&lt;/span&gt;&lt;span dir=&quot;RTL&quot;&gt;&lt;/span&gt;&lt;span style=&quot;font-size:11.0pt;&lt;br/&gt;line-height:107%;font-family:&amp;quot;Arial&amp;quot;,sans-serif;mso-ascii-font-family:Calibri;&lt;br/&gt;mso-ascii-theme-font:minor-latin;mso-fareast-font-family:Calibri;mso-fareast-theme-font:&lt;br/&gt;minor-latin;mso-hansi-font-family:Calibri;mso-hansi-theme-font:minor-latin;&lt;br/&gt;mso-ansi-language:EN-US;mso-fareast-language:EN-US;mso-bidi-language:AR-SA&quot; dir=&quot;RTL&quot;&gt;&lt;span dir=&quot;RTL&quot;&gt;&lt;/span&gt;&lt;span dir=&quot;RTL&quot;&gt;&lt;/span&gt;&lt;/span&gt;" style="ellipse;whiteSpace=wrap;html=1;" vertex="1" parent="1">
          <mxGeometry x="655" y="100" width="120" height="80" as="geometry" />
        </mxCell>
        <mxCell id="HMeaCuF2fgtM7ROqkcLT-90" value="" style="endArrow=none;html=1;rounded=0;entryX=0.5;entryY=1;entryDx=0;entryDy=0;exitX=0.5;exitY=0;exitDx=0;exitDy=0;" edge="1" parent="1" target="HMeaCuF2fgtM7ROqkcLT-89" source="HMeaCuF2fgtM7ROqkcLT-80">
          <mxGeometry width="50" height="50" relative="1" as="geometry">
            <mxPoint x="500" y="300" as="sourcePoint" />
            <mxPoint x="520" y="370" as="targetPoint" />
          </mxGeometry>
        </mxCell>
        <mxCell id="HMeaCuF2fgtM7ROqkcLT-91" value="execution level (Domestic&lt;br/&gt;or international)&amp;nbsp;" style="ellipse;whiteSpace=wrap;html=1;" vertex="1" parent="1">
          <mxGeometry x="510" y="100" width="120" height="80" as="geometry" />
        </mxCell>
        <mxCell id="HMeaCuF2fgtM7ROqkcLT-92" value="" style="endArrow=none;html=1;rounded=0;entryX=0.5;entryY=1;entryDx=0;entryDy=0;exitX=0.5;exitY=0;exitDx=0;exitDy=0;" edge="1" parent="1" target="HMeaCuF2fgtM7ROqkcLT-91" source="HMeaCuF2fgtM7ROqkcLT-80">
          <mxGeometry width="50" height="50" relative="1" as="geometry">
            <mxPoint x="510" y="310" as="sourcePoint" />
            <mxPoint x="530" y="380" as="targetPoint" />
          </mxGeometry>
        </mxCell>
        <mxCell id="HMeaCuF2fgtM7ROqkcLT-93" value="&amp;nbsp;Type and amount of financial resources" style="ellipse;whiteSpace=wrap;html=1;" vertex="1" parent="1">
          <mxGeometry x="330" y="100" width="120" height="80" as="geometry" />
        </mxCell>
        <mxCell id="HMeaCuF2fgtM7ROqkcLT-94" value="" style="endArrow=none;html=1;rounded=0;entryX=0.5;entryY=1;entryDx=0;entryDy=0;" edge="1" parent="1" target="HMeaCuF2fgtM7ROqkcLT-93">
          <mxGeometry width="50" height="50" relative="1" as="geometry">
            <mxPoint x="490" y="290" as="sourcePoint" />
            <mxPoint x="540" y="390" as="targetPoint" />
          </mxGeometry>
        </mxCell>
        <mxCell id="HMeaCuF2fgtM7ROqkcLT-95" value="&lt;pre style=&quot;text-align:right;line-height:27.0pt&quot;&gt;Start and end time&lt;i style=&quot;background-color: initial; font-family: Helvetica; text-align: center; white-space: normal;&quot;&gt;&lt;span style=&quot;font-size:9.0pt;font-family:&amp;quot;Times New Roman&amp;quot;,serif;mso-fareast-font-family:&lt;br/&gt;&amp;quot;Times New Roman&amp;quot;;color:#202124&quot;&gt;&amp;nbsp;&lt;/span&gt;&lt;/i&gt;&lt;/pre&gt;" style="ellipse;whiteSpace=wrap;html=1;" vertex="1" parent="1">
          <mxGeometry x="160" y="100" width="120" height="80" as="geometry" />
        </mxCell>
        <mxCell id="HMeaCuF2fgtM7ROqkcLT-96" value="" style="endArrow=none;html=1;rounded=0;entryX=0.5;entryY=1;entryDx=0;entryDy=0;exitX=0.5;exitY=0;exitDx=0;exitDy=0;" edge="1" parent="1" target="HMeaCuF2fgtM7ROqkcLT-95" source="HMeaCuF2fgtM7ROqkcLT-80">
          <mxGeometry width="50" height="50" relative="1" as="geometry">
            <mxPoint x="670" y="292.5" as="sourcePoint" />
            <mxPoint x="690" y="362.5" as="targetPoint" />
          </mxGeometry>
        </mxCell>
        <mxCell id="HMeaCuF2fgtM7ROqkcLT-102" value="" style="endArrow=none;html=1;rounded=0;entryX=0;entryY=1;entryDx=0;entryDy=0;" edge="1" parent="1" target="HMeaCuF2fgtM7ROqkcLT-104">
          <mxGeometry width="50" height="50" relative="1" as="geometry">
            <mxPoint x="490" y="290" as="sourcePoint" />
            <mxPoint x="720" y="210" as="targetPoint" />
          </mxGeometry>
        </mxCell>
        <mxCell id="HMeaCuF2fgtM7ROqkcLT-104" value="&amp;nbsp;executive offices’s information" style="ellipse;whiteSpace=wrap;html=1;" vertex="1" parent="1">
          <mxGeometry x="650" y="210" width="120" height="80" as="geometry" />
        </mxCell>
        <mxCell id="HMeaCuF2fgtM7ROqkcLT-164" value="conference papers" style="rounded=0;whiteSpace=wrap;html=1;" vertex="1" parent="1">
          <mxGeometry x="300" y="1330" width="120" height="60" as="geometry" />
        </mxCell>
        <mxCell id="HMeaCuF2fgtM7ROqkcLT-165" value="&lt;span style=&quot;font-size:11.0pt;&lt;br/&gt;line-height:107%;font-family:&amp;quot;Calibri&amp;quot;,sans-serif;mso-ascii-theme-font:minor-latin;&lt;br/&gt;mso-fareast-font-family:Calibri;mso-fareast-theme-font:minor-latin;mso-hansi-theme-font:&lt;br/&gt;minor-latin;mso-bidi-font-family:&amp;quot;2  Nazanin&amp;quot;;mso-ansi-language:EN-US;&lt;br/&gt;mso-fareast-language:EN-US;mso-bidi-language:AR-SA&quot;&gt;\page numbers&lt;/span&gt;" style="ellipse;whiteSpace=wrap;html=1;" vertex="1" parent="1">
          <mxGeometry x="95" y="1540" width="120" height="80" as="geometry" />
        </mxCell>
        <mxCell id="HMeaCuF2fgtM7ROqkcLT-166" value="" style="endArrow=none;html=1;rounded=0;entryX=0.5;entryY=1;entryDx=0;entryDy=0;" edge="1" parent="1" source="HMeaCuF2fgtM7ROqkcLT-165" target="HMeaCuF2fgtM7ROqkcLT-164">
          <mxGeometry width="50" height="50" relative="1" as="geometry">
            <mxPoint x="100" y="1410" as="sourcePoint" />
            <mxPoint x="150" y="1360" as="targetPoint" />
          </mxGeometry>
        </mxCell>
        <mxCell id="HMeaCuF2fgtM7ROqkcLT-167" value="Academic" style="ellipse;whiteSpace=wrap;html=1;" vertex="1" parent="1">
          <mxGeometry x="510" y="1360" width="120" height="80" as="geometry" />
        </mxCell>
        <mxCell id="HMeaCuF2fgtM7ROqkcLT-168" value="" style="endArrow=none;html=1;rounded=0;entryX=0.5;entryY=1;entryDx=0;entryDy=0;" edge="1" parent="1" source="HMeaCuF2fgtM7ROqkcLT-167" target="HMeaCuF2fgtM7ROqkcLT-164">
          <mxGeometry width="50" height="50" relative="1" as="geometry">
            <mxPoint x="240" y="1410" as="sourcePoint" />
            <mxPoint x="500" y="1380" as="targetPoint" />
          </mxGeometry>
        </mxCell>
        <mxCell id="HMeaCuF2fgtM7ROqkcLT-169" value="executive" style="ellipse;whiteSpace=wrap;html=1;" vertex="1" parent="1">
          <mxGeometry x="510" y="1450" width="120" height="80" as="geometry" />
        </mxCell>
        <mxCell id="HMeaCuF2fgtM7ROqkcLT-170" value="" style="endArrow=none;html=1;rounded=0;entryX=0.5;entryY=1;entryDx=0;entryDy=0;" edge="1" parent="1" source="HMeaCuF2fgtM7ROqkcLT-169" target="HMeaCuF2fgtM7ROqkcLT-164">
          <mxGeometry width="50" height="50" relative="1" as="geometry">
            <mxPoint x="120" y="1430" as="sourcePoint" />
            <mxPoint x="380" y="1400" as="targetPoint" />
            <Array as="points">
              <mxPoint x="420" y="1420" />
            </Array>
          </mxGeometry>
        </mxCell>
        <mxCell id="HMeaCuF2fgtM7ROqkcLT-171" value="Date of admission" style="ellipse;whiteSpace=wrap;html=1;" vertex="1" parent="1">
          <mxGeometry x="95" y="1450" width="120" height="80" as="geometry" />
        </mxCell>
        <mxCell id="HMeaCuF2fgtM7ROqkcLT-172" value="" style="endArrow=none;html=1;rounded=0;entryX=0.5;entryY=1;entryDx=0;entryDy=0;" edge="1" parent="1" source="HMeaCuF2fgtM7ROqkcLT-171" target="HMeaCuF2fgtM7ROqkcLT-164">
          <mxGeometry width="50" height="50" relative="1" as="geometry">
            <mxPoint x="130" y="1440" as="sourcePoint" />
            <mxPoint x="390" y="1410" as="targetPoint" />
            <Array as="points">
              <mxPoint x="290" y="1420" />
            </Array>
          </mxGeometry>
        </mxCell>
        <mxCell id="HMeaCuF2fgtM7ROqkcLT-173" value="&lt;span style=&quot;font-size:11.0pt;&lt;br/&gt;line-height:107%;font-family:&amp;quot;Calibri&amp;quot;,sans-serif;mso-ascii-theme-font:minor-latin;&lt;br/&gt;mso-fareast-font-family:Calibri;mso-fareast-theme-font:minor-latin;mso-hansi-theme-font:&lt;br/&gt;minor-latin;mso-bidi-font-family:&amp;quot;2  Nazanin&amp;quot;;mso-ansi-language:EN-US;&lt;br/&gt;mso-fareast-language:EN-US;mso-bidi-language:AR-SA&quot;&gt;shipping time&lt;/span&gt;" style="ellipse;whiteSpace=wrap;html=1;" vertex="1" parent="1">
          <mxGeometry x="95" y="1360" width="120" height="80" as="geometry" />
        </mxCell>
        <mxCell id="HMeaCuF2fgtM7ROqkcLT-174" value="" style="endArrow=none;html=1;rounded=0;entryX=0.5;entryY=1;entryDx=0;entryDy=0;" edge="1" parent="1" source="HMeaCuF2fgtM7ROqkcLT-173" target="HMeaCuF2fgtM7ROqkcLT-164">
          <mxGeometry width="50" height="50" relative="1" as="geometry">
            <mxPoint x="-45" y="1410" as="sourcePoint" />
            <mxPoint x="215" y="1380" as="targetPoint" />
          </mxGeometry>
        </mxCell>
        <mxCell id="HMeaCuF2fgtM7ROqkcLT-175" value="Reviewers" style="ellipse;whiteSpace=wrap;html=1;" vertex="1" parent="1">
          <mxGeometry x="510" y="1540" width="120" height="80" as="geometry" />
        </mxCell>
        <mxCell id="HMeaCuF2fgtM7ROqkcLT-176" value="" style="endArrow=none;html=1;rounded=0;entryX=0.5;entryY=1;entryDx=0;entryDy=0;" edge="1" parent="1" source="HMeaCuF2fgtM7ROqkcLT-175" target="HMeaCuF2fgtM7ROqkcLT-164">
          <mxGeometry width="50" height="50" relative="1" as="geometry">
            <mxPoint x="150" y="1460" as="sourcePoint" />
            <mxPoint x="360" y="1440" as="targetPoint" />
          </mxGeometry>
        </mxCell>
        <mxCell id="HMeaCuF2fgtM7ROqkcLT-177" value="sponsors" style="ellipse;whiteSpace=wrap;html=1;" vertex="1" parent="1">
          <mxGeometry x="370" y="1540" width="120" height="80" as="geometry" />
        </mxCell>
        <mxCell id="HMeaCuF2fgtM7ROqkcLT-178" value="" style="endArrow=none;html=1;rounded=0;entryX=0.5;entryY=1;entryDx=0;entryDy=0;" edge="1" parent="1" source="HMeaCuF2fgtM7ROqkcLT-177" target="HMeaCuF2fgtM7ROqkcLT-164">
          <mxGeometry width="50" height="50" relative="1" as="geometry">
            <mxPoint x="160" y="1470" as="sourcePoint" />
            <mxPoint x="420" y="1440" as="targetPoint" />
          </mxGeometry>
        </mxCell>
        <mxCell id="HMeaCuF2fgtM7ROqkcLT-179" value="budget" style="ellipse;whiteSpace=wrap;html=1;" vertex="1" parent="1">
          <mxGeometry x="235" y="1540" width="120" height="80" as="geometry" />
        </mxCell>
        <mxCell id="HMeaCuF2fgtM7ROqkcLT-180" value="" style="endArrow=none;html=1;rounded=0;entryX=0.5;entryY=1;entryDx=0;entryDy=0;" edge="1" parent="1" source="HMeaCuF2fgtM7ROqkcLT-179" target="HMeaCuF2fgtM7ROqkcLT-164">
          <mxGeometry width="50" height="50" relative="1" as="geometry">
            <mxPoint x="50" y="1510" as="sourcePoint" />
            <mxPoint x="310" y="1480" as="targetPoint" />
          </mxGeometry>
        </mxCell>
        <mxCell id="HMeaCuF2fgtM7ROqkcLT-181" value="workshops" style="rounded=0;whiteSpace=wrap;html=1;" vertex="1" parent="1">
          <mxGeometry x="1505" y="1330" width="120" height="60" as="geometry" />
        </mxCell>
        <mxCell id="HMeaCuF2fgtM7ROqkcLT-182" value="&lt;span style=&quot;font-size:11.0pt;&lt;br/&gt;line-height:107%;font-family:&amp;quot;Calibri&amp;quot;,sans-serif;mso-ascii-theme-font:minor-latin;&lt;br/&gt;mso-fareast-font-family:Calibri;mso-fareast-theme-font:minor-latin;mso-hansi-theme-font:&lt;br/&gt;minor-latin;mso-bidi-font-family:&amp;quot;2  Nazanin&amp;quot;;mso-ansi-language:EN-US;&lt;br/&gt;mso-fareast-language:EN-US;mso-bidi-language:AR-SA&quot;&gt;page numbers&lt;/span&gt;" style="ellipse;whiteSpace=wrap;html=1;" vertex="1" parent="1">
          <mxGeometry x="1300" y="1540" width="120" height="80" as="geometry" />
        </mxCell>
        <mxCell id="HMeaCuF2fgtM7ROqkcLT-183" value="" style="endArrow=none;html=1;rounded=0;entryX=0.5;entryY=1;entryDx=0;entryDy=0;" edge="1" parent="1" source="HMeaCuF2fgtM7ROqkcLT-182" target="HMeaCuF2fgtM7ROqkcLT-181">
          <mxGeometry width="50" height="50" relative="1" as="geometry">
            <mxPoint x="1305" y="1410" as="sourcePoint" />
            <mxPoint x="1355" y="1360" as="targetPoint" />
          </mxGeometry>
        </mxCell>
        <mxCell id="HMeaCuF2fgtM7ROqkcLT-184" value="Academic" style="ellipse;whiteSpace=wrap;html=1;" vertex="1" parent="1">
          <mxGeometry x="1715" y="1360" width="120" height="80" as="geometry" />
        </mxCell>
        <mxCell id="HMeaCuF2fgtM7ROqkcLT-185" value="" style="endArrow=none;html=1;rounded=0;entryX=0.5;entryY=1;entryDx=0;entryDy=0;" edge="1" parent="1" source="HMeaCuF2fgtM7ROqkcLT-184" target="HMeaCuF2fgtM7ROqkcLT-181">
          <mxGeometry width="50" height="50" relative="1" as="geometry">
            <mxPoint x="1445" y="1410" as="sourcePoint" />
            <mxPoint x="1705" y="1380" as="targetPoint" />
          </mxGeometry>
        </mxCell>
        <mxCell id="HMeaCuF2fgtM7ROqkcLT-186" value="executive" style="ellipse;whiteSpace=wrap;html=1;" vertex="1" parent="1">
          <mxGeometry x="1715" y="1450" width="120" height="80" as="geometry" />
        </mxCell>
        <mxCell id="HMeaCuF2fgtM7ROqkcLT-187" value="" style="endArrow=none;html=1;rounded=0;entryX=0.5;entryY=1;entryDx=0;entryDy=0;" edge="1" parent="1" source="HMeaCuF2fgtM7ROqkcLT-186" target="HMeaCuF2fgtM7ROqkcLT-181">
          <mxGeometry width="50" height="50" relative="1" as="geometry">
            <mxPoint x="1325" y="1430" as="sourcePoint" />
            <mxPoint x="1585" y="1400" as="targetPoint" />
            <Array as="points">
              <mxPoint x="1625" y="1420" />
            </Array>
          </mxGeometry>
        </mxCell>
        <mxCell id="HMeaCuF2fgtM7ROqkcLT-188" value="Date of admission" style="ellipse;whiteSpace=wrap;html=1;" vertex="1" parent="1">
          <mxGeometry x="1300" y="1450" width="120" height="80" as="geometry" />
        </mxCell>
        <mxCell id="HMeaCuF2fgtM7ROqkcLT-189" value="" style="endArrow=none;html=1;rounded=0;entryX=0.5;entryY=1;entryDx=0;entryDy=0;" edge="1" parent="1" source="HMeaCuF2fgtM7ROqkcLT-188" target="HMeaCuF2fgtM7ROqkcLT-181">
          <mxGeometry width="50" height="50" relative="1" as="geometry">
            <mxPoint x="1335" y="1440" as="sourcePoint" />
            <mxPoint x="1595" y="1410" as="targetPoint" />
            <Array as="points">
              <mxPoint x="1495" y="1420" />
            </Array>
          </mxGeometry>
        </mxCell>
        <mxCell id="HMeaCuF2fgtM7ROqkcLT-190" value="&lt;span style=&quot;font-size:11.0pt;&lt;br/&gt;line-height:107%;font-family:&amp;quot;Calibri&amp;quot;,sans-serif;mso-ascii-theme-font:minor-latin;&lt;br/&gt;mso-fareast-font-family:Calibri;mso-fareast-theme-font:minor-latin;mso-hansi-theme-font:&lt;br/&gt;minor-latin;mso-bidi-font-family:&amp;quot;2  Nazanin&amp;quot;;mso-ansi-language:EN-US;&lt;br/&gt;mso-fareast-language:EN-US;mso-bidi-language:AR-SA&quot;&gt;shipping time&lt;/span&gt;" style="ellipse;whiteSpace=wrap;html=1;" vertex="1" parent="1">
          <mxGeometry x="1300" y="1360" width="120" height="80" as="geometry" />
        </mxCell>
        <mxCell id="HMeaCuF2fgtM7ROqkcLT-191" value="" style="endArrow=none;html=1;rounded=0;entryX=0.5;entryY=1;entryDx=0;entryDy=0;" edge="1" parent="1" source="HMeaCuF2fgtM7ROqkcLT-190" target="HMeaCuF2fgtM7ROqkcLT-181">
          <mxGeometry width="50" height="50" relative="1" as="geometry">
            <mxPoint x="1160" y="1410" as="sourcePoint" />
            <mxPoint x="1420" y="1380" as="targetPoint" />
          </mxGeometry>
        </mxCell>
        <mxCell id="HMeaCuF2fgtM7ROqkcLT-192" value="Reviewers" style="ellipse;whiteSpace=wrap;html=1;" vertex="1" parent="1">
          <mxGeometry x="1715" y="1540" width="120" height="80" as="geometry" />
        </mxCell>
        <mxCell id="HMeaCuF2fgtM7ROqkcLT-193" value="" style="endArrow=none;html=1;rounded=0;entryX=0.5;entryY=1;entryDx=0;entryDy=0;" edge="1" parent="1" source="HMeaCuF2fgtM7ROqkcLT-192" target="HMeaCuF2fgtM7ROqkcLT-181">
          <mxGeometry width="50" height="50" relative="1" as="geometry">
            <mxPoint x="1355" y="1460" as="sourcePoint" />
            <mxPoint x="1565" y="1440" as="targetPoint" />
          </mxGeometry>
        </mxCell>
        <mxCell id="HMeaCuF2fgtM7ROqkcLT-194" value="sponsors" style="ellipse;whiteSpace=wrap;html=1;" vertex="1" parent="1">
          <mxGeometry x="1715" y="1630" width="120" height="80" as="geometry" />
        </mxCell>
        <mxCell id="HMeaCuF2fgtM7ROqkcLT-195" value="" style="endArrow=none;html=1;rounded=0;entryX=0.5;entryY=1;entryDx=0;entryDy=0;exitX=0;exitY=0;exitDx=0;exitDy=0;" edge="1" parent="1" source="HMeaCuF2fgtM7ROqkcLT-194" target="HMeaCuF2fgtM7ROqkcLT-181">
          <mxGeometry width="50" height="50" relative="1" as="geometry">
            <mxPoint x="1748" y="1634" as="sourcePoint" />
            <mxPoint x="1625" y="1440" as="targetPoint" />
          </mxGeometry>
        </mxCell>
        <mxCell id="HMeaCuF2fgtM7ROqkcLT-196" value="budget" style="ellipse;whiteSpace=wrap;html=1;" vertex="1" parent="1">
          <mxGeometry x="1300" y="1630" width="120" height="80" as="geometry" />
        </mxCell>
        <mxCell id="HMeaCuF2fgtM7ROqkcLT-197" value="" style="endArrow=none;html=1;rounded=0;entryX=0.5;entryY=1;entryDx=0;entryDy=0;exitX=1;exitY=0;exitDx=0;exitDy=0;" edge="1" parent="1" source="HMeaCuF2fgtM7ROqkcLT-196" target="HMeaCuF2fgtM7ROqkcLT-181">
          <mxGeometry width="50" height="50" relative="1" as="geometry">
            <mxPoint x="1255" y="1510" as="sourcePoint" />
            <mxPoint x="1515" y="1480" as="targetPoint" />
          </mxGeometry>
        </mxCell>
        <mxCell id="HMeaCuF2fgtM7ROqkcLT-198" value="place" style="ellipse;whiteSpace=wrap;html=1;" vertex="1" parent="1">
          <mxGeometry x="1440" y="1630" width="120" height="80" as="geometry" />
        </mxCell>
        <mxCell id="HMeaCuF2fgtM7ROqkcLT-199" value="" style="endArrow=none;html=1;rounded=0;entryX=0.5;entryY=1;entryDx=0;entryDy=0;exitX=0.5;exitY=0;exitDx=0;exitDy=0;" edge="1" parent="1" source="HMeaCuF2fgtM7ROqkcLT-198" target="HMeaCuF2fgtM7ROqkcLT-181">
          <mxGeometry width="50" height="50" relative="1" as="geometry">
            <mxPoint x="1265" y="1520" as="sourcePoint" />
            <mxPoint x="1575" y="1400" as="targetPoint" />
          </mxGeometry>
        </mxCell>
        <mxCell id="HMeaCuF2fgtM7ROqkcLT-200" value="Time" style="ellipse;whiteSpace=wrap;html=1;" vertex="1" parent="1">
          <mxGeometry x="1570" y="1630" width="120" height="80" as="geometry" />
        </mxCell>
        <mxCell id="HMeaCuF2fgtM7ROqkcLT-201" value="" style="endArrow=none;html=1;rounded=0;entryX=0.5;entryY=1;entryDx=0;entryDy=0;exitX=0.5;exitY=0;exitDx=0;exitDy=0;" edge="1" parent="1" source="HMeaCuF2fgtM7ROqkcLT-200" target="HMeaCuF2fgtM7ROqkcLT-181">
          <mxGeometry width="50" height="50" relative="1" as="geometry">
            <mxPoint x="1525" y="1510" as="sourcePoint" />
            <mxPoint x="1835" y="1390" as="targetPoint" />
          </mxGeometry>
        </mxCell>
        <mxCell id="HMeaCuF2fgtM7ROqkcLT-202" value="internal papers&amp;nbsp;" style="rounded=0;whiteSpace=wrap;html=1;" vertex="1" parent="1">
          <mxGeometry x="905" y="1330" width="120" height="60" as="geometry" />
        </mxCell>
        <mxCell id="HMeaCuF2fgtM7ROqkcLT-203" value="&lt;span style=&quot;font-size:11.0pt;&lt;br/&gt;line-height:107%;font-family:&amp;quot;Calibri&amp;quot;,sans-serif;mso-ascii-theme-font:minor-latin;&lt;br/&gt;mso-fareast-font-family:Calibri;mso-fareast-theme-font:minor-latin;mso-hansi-theme-font:&lt;br/&gt;minor-latin;mso-bidi-font-family:&amp;quot;2  Nazanin&amp;quot;;mso-ansi-language:EN-US;&lt;br/&gt;mso-fareast-language:EN-US;mso-bidi-language:AR-SA&quot;&gt;page numbers&lt;/span&gt;" style="ellipse;whiteSpace=wrap;html=1;" vertex="1" parent="1">
          <mxGeometry x="700" y="1540" width="120" height="80" as="geometry" />
        </mxCell>
        <mxCell id="HMeaCuF2fgtM7ROqkcLT-204" value="" style="endArrow=none;html=1;rounded=0;entryX=0.5;entryY=1;entryDx=0;entryDy=0;" edge="1" parent="1" source="HMeaCuF2fgtM7ROqkcLT-203" target="HMeaCuF2fgtM7ROqkcLT-202">
          <mxGeometry width="50" height="50" relative="1" as="geometry">
            <mxPoint x="705" y="1410" as="sourcePoint" />
            <mxPoint x="755" y="1360" as="targetPoint" />
          </mxGeometry>
        </mxCell>
        <mxCell id="HMeaCuF2fgtM7ROqkcLT-205" value="Academic" style="ellipse;whiteSpace=wrap;html=1;" vertex="1" parent="1">
          <mxGeometry x="1115" y="1360" width="120" height="80" as="geometry" />
        </mxCell>
        <mxCell id="HMeaCuF2fgtM7ROqkcLT-206" value="" style="endArrow=none;html=1;rounded=0;entryX=0.5;entryY=1;entryDx=0;entryDy=0;" edge="1" parent="1" source="HMeaCuF2fgtM7ROqkcLT-205" target="HMeaCuF2fgtM7ROqkcLT-202">
          <mxGeometry width="50" height="50" relative="1" as="geometry">
            <mxPoint x="845" y="1410" as="sourcePoint" />
            <mxPoint x="1105" y="1380" as="targetPoint" />
          </mxGeometry>
        </mxCell>
        <mxCell id="HMeaCuF2fgtM7ROqkcLT-207" value="executive" style="ellipse;whiteSpace=wrap;html=1;" vertex="1" parent="1">
          <mxGeometry x="1115" y="1450" width="120" height="80" as="geometry" />
        </mxCell>
        <mxCell id="HMeaCuF2fgtM7ROqkcLT-208" value="" style="endArrow=none;html=1;rounded=0;entryX=0.5;entryY=1;entryDx=0;entryDy=0;" edge="1" parent="1" source="HMeaCuF2fgtM7ROqkcLT-207" target="HMeaCuF2fgtM7ROqkcLT-202">
          <mxGeometry width="50" height="50" relative="1" as="geometry">
            <mxPoint x="725" y="1430" as="sourcePoint" />
            <mxPoint x="985" y="1400" as="targetPoint" />
            <Array as="points">
              <mxPoint x="1025" y="1420" />
            </Array>
          </mxGeometry>
        </mxCell>
        <mxCell id="HMeaCuF2fgtM7ROqkcLT-209" value="Date of admission" style="ellipse;whiteSpace=wrap;html=1;" vertex="1" parent="1">
          <mxGeometry x="700" y="1450" width="120" height="80" as="geometry" />
        </mxCell>
        <mxCell id="HMeaCuF2fgtM7ROqkcLT-210" value="" style="endArrow=none;html=1;rounded=0;entryX=0.5;entryY=1;entryDx=0;entryDy=0;" edge="1" parent="1" source="HMeaCuF2fgtM7ROqkcLT-209" target="HMeaCuF2fgtM7ROqkcLT-202">
          <mxGeometry width="50" height="50" relative="1" as="geometry">
            <mxPoint x="735" y="1440" as="sourcePoint" />
            <mxPoint x="995" y="1410" as="targetPoint" />
            <Array as="points">
              <mxPoint x="895" y="1420" />
            </Array>
          </mxGeometry>
        </mxCell>
        <mxCell id="HMeaCuF2fgtM7ROqkcLT-211" value="&lt;span style=&quot;font-size:11.0pt;&lt;br/&gt;line-height:107%;font-family:&amp;quot;Calibri&amp;quot;,sans-serif;mso-ascii-theme-font:minor-latin;&lt;br/&gt;mso-fareast-font-family:Calibri;mso-fareast-theme-font:minor-latin;mso-hansi-theme-font:&lt;br/&gt;minor-latin;mso-bidi-font-family:&amp;quot;2  Nazanin&amp;quot;;mso-ansi-language:EN-US;&lt;br/&gt;mso-fareast-language:EN-US;mso-bidi-language:AR-SA&quot;&gt;shipping time&lt;/span&gt;" style="ellipse;whiteSpace=wrap;html=1;" vertex="1" parent="1">
          <mxGeometry x="700" y="1360" width="120" height="80" as="geometry" />
        </mxCell>
        <mxCell id="HMeaCuF2fgtM7ROqkcLT-212" value="" style="endArrow=none;html=1;rounded=0;entryX=0.5;entryY=1;entryDx=0;entryDy=0;" edge="1" parent="1" source="HMeaCuF2fgtM7ROqkcLT-211" target="HMeaCuF2fgtM7ROqkcLT-202">
          <mxGeometry width="50" height="50" relative="1" as="geometry">
            <mxPoint x="560" y="1410" as="sourcePoint" />
            <mxPoint x="820" y="1380" as="targetPoint" />
          </mxGeometry>
        </mxCell>
        <mxCell id="HMeaCuF2fgtM7ROqkcLT-213" value="Reviewers" style="ellipse;whiteSpace=wrap;html=1;" vertex="1" parent="1">
          <mxGeometry x="1115" y="1540" width="120" height="80" as="geometry" />
        </mxCell>
        <mxCell id="HMeaCuF2fgtM7ROqkcLT-214" value="" style="endArrow=none;html=1;rounded=0;entryX=0.5;entryY=1;entryDx=0;entryDy=0;" edge="1" parent="1" source="HMeaCuF2fgtM7ROqkcLT-213" target="HMeaCuF2fgtM7ROqkcLT-202">
          <mxGeometry width="50" height="50" relative="1" as="geometry">
            <mxPoint x="755" y="1460" as="sourcePoint" />
            <mxPoint x="965" y="1440" as="targetPoint" />
          </mxGeometry>
        </mxCell>
        <mxCell id="HMeaCuF2fgtM7ROqkcLT-215" value="sponsors" style="ellipse;whiteSpace=wrap;html=1;" vertex="1" parent="1">
          <mxGeometry x="1115" y="1630" width="120" height="80" as="geometry" />
        </mxCell>
        <mxCell id="HMeaCuF2fgtM7ROqkcLT-216" value="" style="endArrow=none;html=1;rounded=0;entryX=0.5;entryY=1;entryDx=0;entryDy=0;exitX=0;exitY=0;exitDx=0;exitDy=0;" edge="1" parent="1" source="HMeaCuF2fgtM7ROqkcLT-215" target="HMeaCuF2fgtM7ROqkcLT-202">
          <mxGeometry width="50" height="50" relative="1" as="geometry">
            <mxPoint x="1148" y="1634" as="sourcePoint" />
            <mxPoint x="1025" y="1440" as="targetPoint" />
          </mxGeometry>
        </mxCell>
        <mxCell id="HMeaCuF2fgtM7ROqkcLT-217" value="budget" style="ellipse;whiteSpace=wrap;html=1;" vertex="1" parent="1">
          <mxGeometry x="700" y="1630" width="120" height="80" as="geometry" />
        </mxCell>
        <mxCell id="HMeaCuF2fgtM7ROqkcLT-218" value="" style="endArrow=none;html=1;rounded=0;entryX=0.5;entryY=1;entryDx=0;entryDy=0;exitX=1;exitY=0;exitDx=0;exitDy=0;" edge="1" parent="1" source="HMeaCuF2fgtM7ROqkcLT-217" target="HMeaCuF2fgtM7ROqkcLT-202">
          <mxGeometry width="50" height="50" relative="1" as="geometry">
            <mxPoint x="655" y="1510" as="sourcePoint" />
            <mxPoint x="915" y="1480" as="targetPoint" />
          </mxGeometry>
        </mxCell>
        <mxCell id="HMeaCuF2fgtM7ROqkcLT-219" value="place" style="ellipse;whiteSpace=wrap;html=1;" vertex="1" parent="1">
          <mxGeometry x="840" y="1630" width="120" height="80" as="geometry" />
        </mxCell>
        <mxCell id="HMeaCuF2fgtM7ROqkcLT-220" value="" style="endArrow=none;html=1;rounded=0;entryX=0.5;entryY=1;entryDx=0;entryDy=0;exitX=0.5;exitY=0;exitDx=0;exitDy=0;" edge="1" parent="1" source="HMeaCuF2fgtM7ROqkcLT-219" target="HMeaCuF2fgtM7ROqkcLT-202">
          <mxGeometry width="50" height="50" relative="1" as="geometry">
            <mxPoint x="665" y="1520" as="sourcePoint" />
            <mxPoint x="975" y="1400" as="targetPoint" />
          </mxGeometry>
        </mxCell>
        <mxCell id="HMeaCuF2fgtM7ROqkcLT-221" value="Time" style="ellipse;whiteSpace=wrap;html=1;" vertex="1" parent="1">
          <mxGeometry x="970" y="1630" width="120" height="80" as="geometry" />
        </mxCell>
        <mxCell id="HMeaCuF2fgtM7ROqkcLT-222" value="" style="endArrow=none;html=1;rounded=0;entryX=0.5;entryY=1;entryDx=0;entryDy=0;exitX=0.5;exitY=0;exitDx=0;exitDy=0;" edge="1" parent="1" source="HMeaCuF2fgtM7ROqkcLT-221" target="HMeaCuF2fgtM7ROqkcLT-202">
          <mxGeometry width="50" height="50" relative="1" as="geometry">
            <mxPoint x="925" y="1510" as="sourcePoint" />
            <mxPoint x="1235" y="1390" as="targetPoint" />
          </mxGeometry>
        </mxCell>
        <mxCell id="HMeaCuF2fgtM7ROqkcLT-223" value="research equipment’s Informatio" style="ellipse;whiteSpace=wrap;html=1;" vertex="1" parent="1">
          <mxGeometry x="430" y="1920" width="120" height="80" as="geometry" />
        </mxCell>
        <mxCell id="HMeaCuF2fgtM7ROqkcLT-224" value="&amp;nbsp;total wages," style="ellipse;whiteSpace=wrap;html=1;" vertex="1" parent="1">
          <mxGeometry x="110" y="1920" width="120" height="80" as="geometry" />
        </mxCell>
        <mxCell id="HMeaCuF2fgtM7ROqkcLT-225" value="Case payments" style="ellipse;whiteSpace=wrap;html=1;" vertex="1" parent="1">
          <mxGeometry x="280" y="1920" width="120" height="80" as="geometry" />
        </mxCell>
        <mxCell id="HMeaCuF2fgtM7ROqkcLT-227" value="" style="endArrow=none;html=1;rounded=0;entryX=0.5;entryY=1;entryDx=0;entryDy=0;exitX=0.5;exitY=0;exitDx=0;exitDy=0;" edge="1" parent="1" source="HMeaCuF2fgtM7ROqkcLT-223" target="HMeaCuF2fgtM7ROqkcLT-11">
          <mxGeometry width="50" height="50" relative="1" as="geometry">
            <mxPoint x="390" y="1910" as="sourcePoint" />
            <mxPoint x="340" y="1860" as="targetPoint" />
          </mxGeometry>
        </mxCell>
        <mxCell id="HMeaCuF2fgtM7ROqkcLT-231" value="" style="endArrow=none;html=1;rounded=0;entryX=0.5;entryY=1;entryDx=0;entryDy=0;exitX=0.5;exitY=0;exitDx=0;exitDy=0;" edge="1" parent="1" source="HMeaCuF2fgtM7ROqkcLT-225" target="HMeaCuF2fgtM7ROqkcLT-11">
          <mxGeometry width="50" height="50" relative="1" as="geometry">
            <mxPoint x="500" y="1930" as="sourcePoint" />
            <mxPoint x="355" y="1870" as="targetPoint" />
          </mxGeometry>
        </mxCell>
        <mxCell id="HMeaCuF2fgtM7ROqkcLT-232" value="" style="endArrow=none;html=1;rounded=0;entryX=0.5;entryY=1;entryDx=0;entryDy=0;exitX=0.5;exitY=0;exitDx=0;exitDy=0;" edge="1" parent="1" source="HMeaCuF2fgtM7ROqkcLT-224" target="HMeaCuF2fgtM7ROqkcLT-11">
          <mxGeometry width="50" height="50" relative="1" as="geometry">
            <mxPoint x="510" y="1940" as="sourcePoint" />
            <mxPoint x="365" y="1880" as="targetPoint" />
          </mxGeometry>
        </mxCell>
      </root>
    </mxGraphModel>
  </diagram>
</mxfile>
